<svg id="Component_5_1" data-name="Component 5 – 1" xmlns="http://www.w3.org/2000/svg" width="245" height="245" viewBox="0 0 245 245">
  <g id="Ellipse_32" data-name="Ellipse 32" fill="none" stroke="#fff" stroke-width="7">
    <circle cx="122.5" cy="122.5" r="122.5" stroke="none"/>
    <circle cx="122.5" cy="122.5" r="119" fill="none"/>
  </g>
  <text id="體驗預約" transform="translate(56.689 200.15)" fill="#fff" font-size="30" font-family="NotoSansCJKjp-Black, Noto Sans CJK JP" font-weight="800" letter-spacing="0.1em"><tspan x="0" y="0">體驗預約</tspan></text>
  <g id="Group_26" data-name="Group 26" transform="translate(63.438 34.757)">
    <g id="Group_25" data-name="Group 25">
      <path id="Path_38" data-name="Path 38" d="M337.049,1162.637a9.007,9.007,0,0,0-12.722,0l-27.6,27.6A2.489,2.489,0,0,0,296,1192v15.332a2.491,2.491,0,0,0,2.491,2.491h15.333a2.491,2.491,0,0,0,1.761-.73l27.6-27.6a9,9,0,0,0,0-12.722Zm-3.523,3.523,6.133,6.133a4.015,4.015,0,0,1,0,5.678l-1.122,1.121-11.81-11.81,1.121-1.122A4.019,4.019,0,0,1,333.527,1166.16Zm-20.735,38.678h-11.81v-11.81l22.224-22.224,4.143,4.143-18.166,18.166a2.491,2.491,0,0,0,3.523,3.522l18.165-18.165,4.144,4.143Z" transform="translate(-226.256 -1125.131)" fill="#fff"/>
      <path id="Path_39" data-name="Path 39" d="M298.653,1104H226.418A22.443,22.443,0,0,0,204,1126.418v64.762a2.491,2.491,0,1,0,4.982,0v-64.762a17.456,17.456,0,0,1,17.436-17.436h62.3a12.373,12.373,0,0,0-2.514,7.473v17.436a2.491,2.491,0,1,0,4.982,0v-9.964h17.436a2.491,2.491,0,0,0,2.491-2.491v-4.982A12.468,12.468,0,0,0,298.653,1104Zm7.473,14.945H291.18v-2.491a7.473,7.473,0,0,1,14.945,0Z" transform="translate(-191.546 -1104)" fill="#fff"/>
      <path id="Path_40" data-name="Path 40" d="M281.143,1244a2.491,2.491,0,0,0-2.491,2.491v17.436a7.473,7.473,0,1,1-14.945,0v-4.982a2.491,2.491,0,0,0-2.491-2.491H186.491a2.491,2.491,0,0,0-2.491,2.491,17.456,17.456,0,0,0,17.436,17.436H271.18a12.469,12.469,0,0,0,12.454-12.454v-17.436A2.491,2.491,0,0,0,281.143,1244Zm-79.707,27.4a12.476,12.476,0,0,1-12.2-9.963h69.494v2.491a12.393,12.393,0,0,0,2.5,7.473Z" transform="translate(-184 -1156.82)" fill="#fff"/>
      <path id="Path_41" data-name="Path 41" d="M291.4,1160.982a2.491,2.491,0,1,0,0-4.982H266.491a2.491,2.491,0,1,0,0,4.982Z" transform="translate(-214.183 -1123.619)" fill="#fff"/>
      <path id="Path_42" data-name="Path 42" d="M236,1186.491a2.491,2.491,0,0,0,2.491,2.491h32.381a2.491,2.491,0,1,0,0-4.982H238.491A2.491,2.491,0,0,0,236,1186.491Z" transform="translate(-203.619 -1134.183)" fill="#fff"/>
      <path id="Path_43" data-name="Path 43" d="M238.491,1220.982h22.418a2.491,2.491,0,1,0,0-4.982H238.491a2.491,2.491,0,1,0,0,4.982Z" transform="translate(-203.619 -1146.256)" fill="#fff"/>
    </g>
  </g>
</svg>
