<?xml version="1.0" standalone="no"?>
<!DOCTYPE svg PUBLIC "-//W3C//DTD SVG 20010904//EN"
 "http://www.w3.org/TR/2001/REC-SVG-20010904/DTD/svg10.dtd">
<svg version="1.0" xmlns="http://www.w3.org/2000/svg"
 width="1000.000000pt" height="1000.000000pt" viewBox="0 0 1000.000000 1000.000000"
 preserveAspectRatio="xMidYMid meet">
<metadata>
Created by potrace 1.14, written by Peter Selinger 2001-2017
</metadata>
<g transform="translate(0.000000,1000.000000) scale(0.100000,-0.100000)"
fill="#000000" stroke="none">
<path d="M1405 9993 c-272 -33 -505 -118 -725 -264 -127 -84 -325 -282 -409
-409 -123 -185 -207 -391 -247 -605 -18 -96 -19 -229 -19 -3715 0 -3486 1
-3619 19 -3715 60 -324 201 -592 435 -826 234 -234 502 -375 826 -435 96 -18
229 -19 3715 -19 3486 0 3619 1 3715 19 324 60 592 201 826 435 230 231 367
485 431 804 l23 112 0 3625 0 3625 -23 112 c-64 319 -201 573 -431 804 -228
228 -471 359 -799 432 l-97 21 -3605 2 c-1983 0 -3618 -1 -3635 -3z m3735
-1553 l-415 -5 360 -5 360 -4 -405 -7 c-223 -3 -505 -7 -628 -8 -123 0 -221
-5 -218 -9 7 -11 480 -23 1236 -31 604 -6 616 -6 648 -27 64 -42 121 -150 181
-349 44 -142 64 -198 92 -251 29 -54 62 -163 74 -244 13 -88 38 -156 85 -230
51 -79 72 -141 90 -255 14 -92 35 -157 75 -230 38 -70 54 -114 90 -248 15 -54
45 -144 67 -200 22 -55 53 -148 70 -205 16 -58 48 -142 69 -189 22 -46 49
-125 60 -176 31 -147 48 -197 93 -277 52 -90 71 -149 85 -256 12 -95 33 -162
69 -218 58 -91 85 -174 107 -331 4 -28 30 -98 60 -160 30 -60 65 -153 79 -205
31 -117 44 -158 94 -288 22 -56 43 -117 47 -135 10 -50 47 -160 61 -182 18
-27 84 -233 84 -260 0 -50 44 -181 89 -267 48 -90 71 -165 86 -277 8 -62 32
-120 72 -176 49 -68 69 -126 92 -259 19 -120 24 -135 68 -205 26 -42 62 -105
79 -141 44 -92 103 -138 223 -174 96 -28 140 -69 141 -128 0 -83 -75 -110
-239 -87 -74 10 -347 14 -1216 17 -1006 3 -1133 1 -1243 -14 -68 -9 -142 -14
-164 -11 -98 13 -121 143 -34 196 17 11 49 24 72 30 52 14 105 49 121 81 15
30 16 128 2 189 -5 24 -23 64 -39 88 -17 24 -30 48 -30 52 0 5 -6 14 -14 21
-21 17 -54 124 -61 200 -10 100 -32 168 -85 257 -27 44 -52 98 -56 120 -17 97
-47 208 -66 246 -12 23 -50 69 -83 102 -107 104 -30 98 -1167 90 -575 -4 -998
-11 -1033 -17 -89 -14 -128 -41 -188 -127 -60 -88 -92 -165 -102 -247 -10 -76
-37 -144 -80 -201 -43 -57 -70 -127 -90 -240 -19 -106 -40 -164 -77 -220 -53
-79 -68 -122 -68 -207 0 -70 3 -83 26 -113 28 -37 73 -59 151 -75 71 -14 108
-53 108 -113 0 -37 -6 -50 -31 -76 -41 -41 -87 -46 -227 -25 -159 24 -1189 24
-1357 0 -174 -25 -239 0 -248 94 -4 48 -2 53 28 81 23 20 55 35 104 46 74 18
140 50 166 82 9 10 28 41 44 68 16 28 46 69 67 93 48 55 77 118 95 206 23 111
40 160 88 259 25 51 50 115 57 142 7 28 30 93 52 145 21 52 52 138 68 190 53
171 62 195 87 240 55 98 70 140 92 250 24 119 39 158 96 244 35 54 58 127 70
215 9 73 37 152 71 204 47 69 70 127 92 232 24 109 46 176 71 215 31 48 63
133 90 239 6 24 30 84 52 135 38 86 68 174 82 241 11 51 48 138 78 183 33 51
68 148 68 191 0 44 46 183 76 226 46 68 73 129 90 200 35 152 55 216 83 264
28 47 74 170 100 268 7 24 27 75 46 115 18 40 50 129 70 197 34 115 47 148
110 259 14 26 33 89 46 160 22 116 49 187 96 250 32 42 60 127 69 205 9 84 34
152 87 239 24 40 48 84 52 98 11 36 48 103 65 118 8 7 33 25 55 39 l40 26 -30
13 c-24 10 -26 13 -10 14 l20 1 -20 9 c-11 5 342 8 815 7 650 -1 743 -3 420
-7z m838 3 c-16 -2 -40 -2 -55 0 -16 2 -3 4 27 4 30 0 43 -2 28 -4z m-11 -19
c-3 -3 -12 -4 -19 -1 -8 3 -5 6 6 6 11 1 17 -2 13 -5z"/>
<path d="M4324 6524 c-39 -19 -57 -58 -89 -187 -14 -57 -39 -126 -60 -162 -19
-35 -51 -121 -71 -192 -20 -70 -53 -166 -74 -213 -20 -47 -44 -112 -54 -145
-33 -118 -49 -161 -78 -220 -32 -63 -78 -196 -78 -224 0 -56 -54 -197 -108
-286 -28 -46 -52 -125 -67 -222 -14 -96 -40 -162 -81 -206 -39 -43 -64 -106
-64 -167 0 -72 25 -118 79 -149 l42 -23 732 -2 c731 -1 732 -1 772 20 58 31
85 85 85 168 0 73 -27 166 -67 229 -71 113 -96 180 -108 296 -9 80 -32 149
-74 219 -47 81 -60 115 -90 257 -20 93 -41 157 -73 225 -25 52 -55 131 -67
175 -19 69 -48 141 -80 195 -19 31 -42 97 -51 145 -34 177 -53 245 -84 309
-54 108 -81 143 -129 164 -33 14 -25 15 -63 -4z"/>
</g>
</svg>
