<svg id="Group_28" data-name="Group 28" xmlns="http://www.w3.org/2000/svg" width="302.066" height="344.085" viewBox="0 0 302.066 344.085">
  <path id="Path_44" data-name="Path 44" d="M1049.516,706.9l-20.425,16.83-7.549,17.182,2.22,27.221,5.772,17.317,8.437-25.266,6.217,5.951,13.765,1.776,8.533,3.028h1.236l5.772-15.017,5.662,13.317,11.434-16.8,5.328,13.255,11.545-15.7-3.108,11.483,6.217,18.871,6.216-15.319,2.22-18.85L1108.35,719.96l-17.761-14.168-19.361-1.373Z" transform="translate(-846.722 -545.51)" fill="#6a6969"/>
  <path id="Path_45" data-name="Path 45" d="M729.967,367.954l4.635-3.886a20.183,20.183,0,0,1-.812-5.493,3.056,3.056,0,1,1,6.112,0c0,8.155,9.11,20.682,24.356,27.528a52.348,52.348,0,0,0,29.846,3.9c11.038-1.777,21.909-6.948,32.374-15.392-5.229-2.731-14.08-8.663-23.746-20.782-12.434-15.589-30.062-24.941-45.983-24.389-11.86.405-21.986,6.2-29.285,16.758h0l0,0c-.008.012-.018.022-.026.034-.033.045-.067.089-.1.133s-.058.073-.088.108l-.032.038c-.006.006-.012.011-.018.018s-.037.036-.055.055c-.035.036-.07.073-.106.107s-.059.052-.089.077l-.057.049c-.027.022-.054.045-.081.066s-.077.055-.117.083-.083.058-.125.085-.089.051-.134.076-.082.046-.124.067l-.079.037-.018.01c-13.628,6.156-16.472,21.326-16.9,24.232l6.564,25.666-.023-.4a3.058,3.058,0,0,1,.121-1.043l3.461-11.688A33.194,33.194,0,0,1,729.967,367.954Z" transform="translate(-661.713 -323.308)" fill="#956307"/>
  <path id="Path_46" data-name="Path 46" d="M791.916,668.477l-2.106-23.33-11.14,6.235a19.8,19.8,0,0,1-19.222,0l-13.228-7.4-2.039,24.479a3.056,3.056,0,0,1-2.05,2.636l-4.625,1.594c1.087,6.25,6.358,23.293,31.512,23.293,9.984,0,17.649-2.648,22.782-7.872,5.192-5.284,6.567-12.029,6.931-15.371l-4.768-1.643A3.056,3.056,0,0,1,791.916,668.477Z" transform="translate(-678.42 -509.696)" fill="none"/>
  <path id="Path_47" data-name="Path 47" d="M891.413,398.912,755.488,486.138,719.379,473.7l-2.173-24.081,2.921-1.634a23.788,23.788,0,0,0,12.084-18.668c0-.039.006-.078.008-.117l1.783-35.5a3.056,3.056,0,1,0-6.1-.307l-1.781,35.443a17.677,17.677,0,0,1-8.976,13.819l-19.9,11.139a13.651,13.651,0,0,1-13.251,0l-19.9-11.139a17.677,17.677,0,0,1-8.977-13.829l-.537-9.35v-.018l-1.8-31.408,3.309-11.177a27.1,27.1,0,0,1,8.6-13.113l3.164-2.652c4.619,8.5,13.73,16.768,24.7,21.693a58.246,58.246,0,0,0,23.9,5.118,59.3,59.3,0,0,0,9.422-.756c13.506-2.174,26.677-8.9,39.148-19.982a3.063,3.063,0,0,0-1.176-5.218,33.144,33.144,0,0,1-7.564-3.895,78.046,78.046,0,0,1-17.973-16.924c-13.616-17.071-33.144-27.3-50.971-26.687a41.107,41.107,0,0,0-29.08,13.183c-.05-4.632.288-8.548.294-8.608a3.056,3.056,0,0,0-6.088-.541,100.723,100.723,0,0,0-.261,11.56,58.069,58.069,0,0,0-11.312-4.842,3.056,3.056,0,0,0-1.55,5.912,52.913,52.913,0,0,1,10.208,4.443c-13.769,9.359-15.513,26.158-15.587,26.944a3.049,3.049,0,0,0,.082,1.043l14.458,56.534.525,9.143c0,.032,0,.063.007.095A23.785,23.785,0,0,0,661.1,447.98l.813.455-2.1,25.265-5.1,1.757-.022.008-60.13,20.719a3.056,3.056,0,1,0,1.991,5.779l56.7-19.536a35.854,35.854,0,0,0,4.736,11.765c8.2,12.923,22.252,15.635,32.593,15.635,11.726,0,20.879-3.286,27.205-9.766a31.868,31.868,0,0,0,8.415-17.554l22.74,7.835L597.022,587.827l3.148,4.905L894.561,403.818Zm-244.658-12.1a3.059,3.059,0,0,0-.121,1.043l.023.4-6.564-25.666c.425-2.906,3.269-18.076,16.9-24.232l.018-.01.08-.038c.042-.021.082-.044.123-.067s.09-.049.134-.076.084-.056.125-.085.079-.054.117-.083.054-.044.081-.066l.057-.049c.03-.026.06-.051.089-.077s.071-.071.106-.107c.018-.018.038-.036.055-.055s.012-.012.018-.018l.032-.038c.031-.035.06-.071.088-.108s.07-.088.1-.133c.008-.012.018-.022.026-.034l0,0h0c7.3-10.557,17.425-16.352,29.285-16.758,15.921-.552,33.549,8.8,45.983,24.389,9.666,12.119,18.518,18.051,23.746,20.782-10.465,8.444-21.336,13.615-32.374,15.392a52.351,52.351,0,0,1-29.846-3.9c-15.246-6.846-24.356-19.373-24.356-27.528a3.056,3.056,0,1,0-6.112,0,20.2,20.2,0,0,0,.812,5.493l-4.635,3.886a33.2,33.2,0,0,0-10.534,16.062Zm66.6,109.027c-5.133,5.223-12.8,7.871-22.782,7.871-25.154,0-30.425-17.043-31.512-23.293l4.625-1.594a3.056,3.056,0,0,0,2.05-2.636l2.038-24.479,13.228,7.4a19.8,19.8,0,0,0,19.222,0l11.14-6.235,2.106,23.33a3.056,3.056,0,0,0,2.048,2.615l4.768,1.643C719.922,483.815,718.547,490.56,713.354,495.844Z" transform="translate(-592.496 -314.421)" fill="#474747"/>
  <path id="Path_48" data-name="Path 48" d="M1048.839,824.72l18.808,12.026a15.066,15.066,0,0,0,14.468,0l18.769-12.025.049-.031a19.662,19.662,0,0,0,8.955-15.283,3.073,3.073,0,0,1,.05-.357l1.054-5.231c.858-20.737-2.34-31.436-4.141-35.716a28.741,28.741,0,0,1-4.1,3.826,3.056,3.056,0,1,1-3.711-4.857,25.137,25.137,0,0,0,8.973-14.658,3.056,3.056,0,0,1,6.048.881,29.943,29.943,0,0,1-3.26,9.137c.519.779,2.232,3.645,3.759,9.514q.854,3.287,1.438,7.024l4.3-21.33a43.453,43.453,0,0,0-43.3-47.125h-4.225a43.454,43.454,0,0,0-43.3,47.126l4.456,22.206c1.376-8.977,3.8-13.912,5.322-16.257a30.41,30.41,0,0,1-3.919-10.3,3.056,3.056,0,0,1,6.048-.88,25.144,25.144,0,0,0,8.973,14.656,3.056,3.056,0,1,1-3.711,4.857,28.659,28.659,0,0,1-3.334-2.991,33.946,33.946,0,0,0-1.969,5.456c-1.546,5.6-3.126,15.663-1.878,31.779a3.06,3.06,0,0,1-.065.908l.4,1.97a3,3,0,0,1,.05.355,19.663,19.663,0,0,0,8.955,15.283Zm35.426-56.16a18.87,18.87,0,0,0,6.923-12.137,3.056,3.056,0,0,1,6.094.464,25.094,25.094,0,0,1-9.182,16.432,3.056,3.056,0,0,1-3.835-4.759Zm-13.353,4.042a23.022,23.022,0,0,0,4.53-13.492,3.056,3.056,0,0,1,6.112,0,28.857,28.857,0,0,1-5.964,17.425,3.056,3.056,0,0,1-4.678-3.933Zm-16.072-18.987a3.056,3.056,0,0,1,3.27,2.81,18.87,18.87,0,0,0,6.922,12.135,3.056,3.056,0,1,1-3.835,4.759,25.089,25.089,0,0,1-9.181-16.433A3.057,3.057,0,0,1,1054.839,753.615Z" transform="translate(-851.329 -549.123)" fill="none" stroke="#000" stroke-miterlimit="10" stroke-width="1"/>
  <path id="Path_49" data-name="Path 49" d="M1117.768,1038.568l-2.1-24.047-10.659,6.829c-.051.033-.1.064-.156.094a21.213,21.213,0,0,1-20.588,0c-.052-.029-.1-.06-.154-.092l-12.6-8.06-2.211,25.276a3.055,3.055,0,0,1-2.049,2.623l-4.723,1.627c1.09,6.318,6.414,23.684,31.994,23.684,10.167,0,17.965-2.707,23.177-8.046a26.508,26.508,0,0,0,7-15.585l-4.875-1.68A3.055,3.055,0,0,1,1117.768,1038.568Z" transform="translate(-871.004 -728.529)" fill="none" stroke="#000" stroke-miterlimit="10" stroke-width="1"/>
  <path id="Path_50" data-name="Path 50" d="M1025.681,847.765l-2.209-25.26,2.357-1.51a25.772,25.772,0,0,0,11.806-19.8l10.354-51.4a3.046,3.046,0,0,0,.048-.333,49.565,49.565,0,0,0-49.372-53.942h-4.225a49.565,49.565,0,0,0-49.372,53.942,3.02,3.02,0,0,0,.048.331L955.433,801.2a25.771,25.771,0,0,0,11.807,19.8l.557.356a3.038,3.038,0,0,0-.182.8l-2.241,25.619-5.2,1.793-.025.009-60.958,21a3.056,3.056,0,1,0,1.991,5.778l57.522-19.82a36.3,36.3,0,0,0,4.806,11.959c8.306,13.084,22.533,15.831,33.006,15.831,11.875,0,21.144-3.326,27.551-9.888a32.276,32.276,0,0,0,8.527-17.822l41.329,14.241v-6.464ZM961.509,800.52a2.973,2.973,0,0,0-.05-.355l-.4-1.97a3.055,3.055,0,0,0,.066-.908c-1.248-16.117.333-26.177,1.878-31.78a33.946,33.946,0,0,1,1.969-5.456,28.633,28.633,0,0,0,3.334,2.991,3.056,3.056,0,0,0,3.711-4.857,25.143,25.143,0,0,1-8.973-14.656,3.056,3.056,0,0,0-6.048.88,30.409,30.409,0,0,0,3.919,10.3c-1.52,2.345-3.947,7.28-5.322,16.257l-4.456-22.206a43.454,43.454,0,0,1,43.3-47.126h4.225a43.454,43.454,0,0,1,43.3,47.125l-4.3,21.33q-.584-3.733-1.437-7.024c-1.526-5.869-3.24-8.735-3.758-9.514a29.946,29.946,0,0,0,3.26-9.137,3.056,3.056,0,0,0-6.048-.881,25.136,25.136,0,0,1-8.973,14.658,3.056,3.056,0,1,0,3.711,4.857,28.736,28.736,0,0,0,4.1-3.826c1.8,4.28,5,14.979,4.141,35.716l-1.054,5.231a3.076,3.076,0,0,0-.05.357A19.662,19.662,0,0,1,1022.6,815.8l-.049.031-18.769,12.025a15.066,15.066,0,0,1-14.468,0l-18.807-12.026-.046-.029A19.662,19.662,0,0,1,961.509,800.52Zm58.179,69.642c-5.213,5.339-13.01,8.046-23.177,8.046-25.58,0-30.9-17.366-31.994-23.684l4.723-1.627a3.055,3.055,0,0,0,2.049-2.623L973.5,825l12.6,8.06c.05.032.1.063.154.092a21.213,21.213,0,0,0,20.588,0c.053-.03.105-.061.156-.094l10.659-6.829,2.1,24.047a3.055,3.055,0,0,0,2.049,2.623l4.875,1.68A26.51,26.51,0,0,1,1019.689,870.162Z" transform="translate(-773.001 -540.235)" fill="#474747"/>
  <path id="Path_51" data-name="Path 51" d="M1094.19,835.981a3.056,3.056,0,1,0,3.835-4.759,18.871,18.871,0,0,1-6.922-12.135,3.056,3.056,0,0,0-6.095.46A25.088,25.088,0,0,0,1094.19,835.981Z" transform="translate(-884.324 -611.786)" fill="#474747"/>
  <path id="Path_52" data-name="Path 52" d="M1164.436,836.672a3.043,3.043,0,0,0,1.916-.677,25.093,25.093,0,0,0,9.182-16.432,3.056,3.056,0,0,0-6.094-.464,18.869,18.869,0,0,1-6.923,12.137,3.056,3.056,0,0,0,1.92,5.436Z" transform="translate(-929.581 -611.799)" fill="#474747"/>
  <path id="Path_53" data-name="Path 53" d="M1130.736,843.12a3.055,3.055,0,0,0,4.306-.364,28.857,28.857,0,0,0,5.964-17.425,3.056,3.056,0,0,0-6.112,0,23.02,23.02,0,0,1-4.53,13.492A3.056,3.056,0,0,0,1130.736,843.12Z" transform="translate(-910.781 -615.344)" fill="#474747"/>
</svg>
