<svg xmlns="http://www.w3.org/2000/svg" width="243.567" height="364.689" viewBox="0 0 243.567 364.689">
  <g id="Group_31" data-name="Group 31" transform="translate(-853.15 -2062.645)">
    <path id="Path_54" data-name="Path 54" d="M914.117,2078.917v84.619l39.681-1.419,36.012-8.16,28.82-25.347,9.875-16.9,7.43-30.386-1.393-7.238-30.893,22.035,8.381-11.7,2.693-15.127-36.265,16.9-44.68-5.794Z" transform="translate(58.129 6.34)" fill="#6a6969"/>
    <g id="Group_30" data-name="Group 30" transform="translate(853.15 2062.645)">
      <path id="Path_55" data-name="Path 55" d="M1082.683,2133.4c10.17-14.942,14.962-33.1,13.887-53.179a3.9,3.9,0,0,0-6.53-2.68,173.213,173.213,0,0,1-15.337,12,47.239,47.239,0,0,0,2.055-13.905,3.908,3.908,0,0,0-6.647-2.786c-.012.012-1.147,1.121-3.178,2.766a62.977,62.977,0,0,1-51.556,12.756c-2.893-.549-6.214-1.409-10.06-2.4-8.148-2.108-18.24-4.7-29.163-5.468v-13.946a3.907,3.907,0,0,0-7.814,0v13.432c-19.957.719-32.644,6.1-35.947,7.681-2.542-.482-24.8-4.18-45.078,9.221-14.928,9.867-24.83,26.352-29.431,49-8.8,43.322-3.464,118.084,1.078,155.433a110.553,110.553,0,0,0,40.368,73.153,168.168,168.168,0,0,1-1.158,47.988,3.907,3.907,0,0,0,3.157,4.536,3.826,3.826,0,0,0,.693.061,3.907,3.907,0,0,0,3.842-3.215,171.753,171.753,0,0,0,1.883-43.207,109.9,109.9,0,0,0,12.776,7.233l.568.274c13.772,6.6,30.6,14.659,47.248,15.879v19.408a3.907,3.907,0,1,0,7.814,0v-19.289c16.46-1.352,33.064-9.292,46.692-15.829l.58-.275a102.425,102.425,0,0,0,16.194-9.771,172.3,172.3,0,0,0,1.823,44.015,3.906,3.906,0,0,0,3.841,3.217,3.813,3.813,0,0,0,.693-.062,3.906,3.906,0,0,0,3.157-4.536,169.273,169.273,0,0,1-.989-49.562,116.475,116.475,0,0,0,36.84-71.583c3.846-31.621,11.646-110.077,1.057-155.542A78.662,78.662,0,0,0,1082.683,2133.4Zm-79.324-39.87c3.813.986,7.413,1.918,10.558,2.516a70.941,70.941,0,0,0,54-11.4,34.384,34.384,0,0,1-5.847,12.93c-9.842,5.63-21.125,10.535-31.869,11.637a3.907,3.907,0,1,0,.8,7.772c22.775-2.334,46.688-19.317,57.865-28.249-.567,18.816-6.863,34.957-18.771,48.068a81.313,81.313,0,0,1-19.456,15.542c-.074.042-.15.08-.223.129-14.608,8.437-32.558,13.389-52.528,14.245-7.066.3-14.374.408-21.736.357v-78.744C986.164,2089.1,995.662,2091.539,1003.359,2093.531Zm65.585,98.286-.016,67.232c.573,14.981-4.667,30.031-13.674,39.271-6.96,7.142-15.692,10.666-25.979,10.574-9.6-.117-17.593-2.885-26.055-5.817-8.271-2.866-16.825-5.787-27.067-6.232V2290.1a22.744,22.744,0,0,0,4.249-.92,24.435,24.435,0,0,0,5.687-2.7,3.907,3.907,0,1,0-4.221-6.575,16.6,16.6,0,0,1-3.864,1.842,14.806,14.806,0,0,1-1.85.441V2174.906c1.07.007,2.141.018,3.208.018,6.386,0,12.713-.133,18.865-.4,20.289-.869,38.7-5.741,54-14.081C1056.969,2164.426,1068.946,2176.029,1068.944,2191.817Zm-100.6,90.462a15,15,0,0,1-2.358-.523,16.6,16.6,0,0,1-3.9-1.855,3.908,3.908,0,0,0-4.227,6.575,24.46,24.46,0,0,0,5.739,2.719,22.675,22.675,0,0,0,4.743.946v6.493c-9.435.492-17.4,3.19-25.116,5.829-8.871,3.036-17.249,5.9-27.266,5.1a40.463,40.463,0,0,1-22.463-9.123c-11.146-8.974-17.542-22.818-17.548-37.985l-.016-56.5c0-12.148,4.309-23.342,12.143-31.513a44.534,44.534,0,0,1,10.127-7.88c32.107-18.271,36.53-57.725,37.128-69.635,1.045-.528,13.049-6.351,33.011-7.13ZM923.9,2380.818c-31.517-15.108-52.894-45.179-57.184-80.443-4.485-36.882-9.781-110.6-1.178-152.935,10.822-53.287,49.841-53.761,61.946-52.569-.67,11.044-5.02,46.893-33.152,62.9a52.367,52.367,0,0,0-11.9,9.263c-9.238,9.635-14.321,22.748-14.317,36.924l.016,56.5c.006,17.542,7.464,33.6,20.462,44.068a48.15,48.15,0,0,0,26.741,10.826q2.054.161,4.026.161c9.853,0,18.245-2.874,26.391-5.663,7.39-2.528,14.422-4.917,22.586-5.407v21.609a38.24,38.24,0,0,0-22.474,7.326,3.907,3.907,0,0,0,4.919,6.071,30.455,30.455,0,0,1,17.521-5.595h.035v62.333c-15-1.221-30.874-8.867-43.869-15.1Zm153.325-82.006c-3.188,26.227-16.206,51.013-35.711,68a95.8,95.8,0,0,1-21.471,14.172l-.578.279c-12.844,6.162-28.472,13.655-43.314,15.043v-63.243a44.353,44.353,0,0,0,20.461-5.7,3.906,3.906,0,1,0-3.8-6.825,36.758,36.758,0,0,1-16.659,4.7V2304.66c8.945.442,16.534,3.038,24.51,5.8,8.677,3,17.651,6.113,28.515,6.248.205,0,.406,0,.609,0a42.372,42.372,0,0,0,31.064-12.937c10.607-10.885,16.546-27.714,15.89-44.873l.017-67.082c0-17.19-11.064-29.767-17.5-35.629a87.472,87.472,0,0,0,16.626-14.131c.385-.424.74-.864,1.115-1.293.535,1.709,1.02,3.447,1.434,5.222C1089.026,2191.477,1080.188,2274.46,1077.227,2298.812Z" transform="translate(-853.15 -2062.645)" fill="#333"/>
      <path id="Path_56" data-name="Path 56" d="M951.9,2130.545a3.917,3.917,0,0,0,1.764-.421c17.563-8.908,30.493-22.379,37.4-38.964a3.907,3.907,0,1,0-7.214-3c-6.177,14.844-17.837,26.944-33.717,35a3.908,3.908,0,0,0,1.77,7.394Z" transform="translate(-762.722 -2040.617)" fill="#333"/>
      <path id="Path_57" data-name="Path 57" d="M938.331,2119.134a3.949,3.949,0,0,0,.77-.077,113.581,113.581,0,0,0,15.671-4.3,3.907,3.907,0,1,0-2.616-7.364,105.938,105.938,0,0,1-14.589,4,3.907,3.907,0,0,0,.764,7.738Z" transform="translate(-775.656 -2020.193)" fill="#333"/>
    </g>
  </g>
</svg>
