<svg xmlns="http://www.w3.org/2000/svg" width="256.156" height="225.533" viewBox="0 0 256.156 225.533">
  <g id="Group_32" data-name="Group 32" transform="translate(-1815.297 -766.321)">
    <path id="Path_58" data-name="Path 58" d="M1914.8,787.484c23.078,16.771,46.832,25.155,72.169,25.154,22.49,0,46.229-6.613,71.843-19.823l-3.1,17.3,9.9,1.775,5.841-32.581-32.582-5.841-1.774,9.9,13.39,2.4c-49.605,24.573-90.074,22.428-129.774-6.422-39.061-28.385-102.725-1.706-105.417-.556l3.952,9.251C1819.855,787.782,1880.306,762.417,1914.8,787.484Z" transform="translate(0)" fill="#333"/>
    <path id="Path_59" data-name="Path 59" d="M2037.1,878.387l13.39,2.4c-49.605,24.573-90.074,22.427-129.774-6.422-39.061-28.385-102.725-1.706-105.417-.556l3.952,9.251c.606-.26,61.057-25.623,95.551-.557,23.078,16.771,46.832,25.155,72.169,25.154,22.49,0,46.229-6.613,71.843-19.823l-3.1,17.3,9.9,1.775,5.841-32.581-32.582-5.841Z" transform="translate(0 -35.28)" fill="#333"/>
    <path id="Path_60" data-name="Path 60" d="M2037.1,973.407l13.39,2.4c-49.605,24.573-90.074,22.428-129.774-6.421-39.061-28.385-102.725-1.706-105.417-.557l3.952,9.251c.606-.259,61.057-25.623,95.551-.556,23.078,16.771,46.832,25.154,72.169,25.154,22.49,0,46.229-6.612,71.843-19.822l-3.1,17.3,9.9,1.775,5.841-32.582-32.582-5.841Z" transform="translate(0 -70.561)" fill="#333"/>
    <path id="Path_61" data-name="Path 61" d="M2037.1,1068.426l13.39,2.4c-49.605,24.573-90.074,22.428-129.774-6.421-39.061-28.385-102.725-1.706-105.417-.557l3.952,9.251c.606-.26,61.057-25.624,95.551-.556,23.078,16.771,46.832,25.154,72.169,25.154,22.49,0,46.229-6.612,71.843-19.822l-3.1,17.3,9.9,1.775,5.841-32.582-32.582-5.841Z" transform="translate(0 -105.841)" fill="#333"/>
  </g>
</svg>
