<svg xmlns="http://www.w3.org/2000/svg" width="331.654" height="356.5" viewBox="0 0 331.654 356.5">
  <g id="Group_33" data-name="Group 33" transform="translate(-1110.577 -250)">
    <rect id="Rectangle_149" data-name="Rectangle 149" width="9.909" height="19.818" transform="translate(1358.301 254.955)" fill="#474747"/>
    <rect id="Rectangle_150" data-name="Rectangle 150" width="9.909" height="19.818" transform="translate(1358.301 294.59)" fill="#474747"/>
    <rect id="Rectangle_151" data-name="Rectangle 151" width="19.818" height="9.909" transform="translate(1373.164 279.727)" fill="#474747"/>
    <rect id="Rectangle_152" data-name="Rectangle 152" width="19.819" height="9.909" transform="translate(1333.528 279.727)" fill="#474747"/>
    <path id="Path_62" data-name="Path 62" d="M1184.16,283.654c-6.251,0-11.537,3.1-14.862,5.7-3.327-2.6-8.612-5.7-14.864-5.7a19.818,19.818,0,0,0-14.279,33.56l22.07,22.923a10.1,10.1,0,0,0,7.073,2.97,9.96,9.96,0,0,0,7.139-3.037l22-22.856a19.817,19.817,0,0,0-14.279-33.56Zm7.14,26.689L1169.353,333.2c-.02-.005-.055-.023-.064-.023s0,0,.008.018l-22-22.856a9.908,9.908,0,0,1,7.139-16.78c4.846,0,9.718,4.186,11.173,5.782l3.674,4.072,3.694-4.056c1.468-1.612,6.34-5.8,11.185-5.8a9.908,9.908,0,0,1,7.14,16.78Z" transform="translate(0.734 1.027)" fill="#474747"/>
    <path id="Path_63" data-name="Path 63" d="M1169.767,375.473a69.409,69.409,0,0,1-44.212-15.956l-6.326,7.628a79.342,79.342,0,0,0,50.538,18.237,80.325,80.325,0,0,0,9.971-.621l-1.234-9.832A70.277,70.277,0,0,1,1169.767,375.473Z" transform="translate(0.264 3.343)" fill="#474747"/>
    <path id="Path_64" data-name="Path 64" d="M1219.575,378.816a9.911,9.911,0,0,0,9.4-13.044l-8.358-25.071a59.355,59.355,0,1,0-30.3,24.655l24.831,12.415A9.941,9.941,0,0,0,1219.575,378.816Zm-30.868-23.457a49.561,49.561,0,1,1,22.359-18.132l-1.375,2.026,9.888,29.657-28.8-14.4Z" transform="translate(0 0)" fill="#474747"/>
    <path id="Path_65" data-name="Path 65" d="M1439.013,587.011a4.779,4.779,0,0,0-2.757-2.44l-79.1-27.255-2.4-27.457,5.2-2.91a31.844,31.844,0,0,0,16.2-24.976l8.382-82.31,2.736.331a4.811,4.811,0,0,0,5.232-5.982c-.378-1.46-9.424-35.423-30.755-36.141-3.952-9-18.374-27.8-69.107-23.618-5.5.18-20.889.451-26.036-.439a4.81,4.81,0,0,0-4.054,8.3l3,2.729-21.5-.532h-.051a4.809,4.809,0,0,0-2.83,8.736l7.921,5.6-15.079,5.435a4.81,4.81,0,0,0-.507,8.835l11.746,5.822-10.035,7.1a4.809,4.809,0,0,0,.3,8.052l16.79,10.074a4.82,4.82,0,0,0,6.374-1.309,61.126,61.126,0,0,0-.89,17.076l8.016,62.262a31.913,31.913,0,0,0,16.2,24.959l2.841,1.59-2.516,28.777-79.1,27.255a4.81,4.81,0,1,0,3.134,9.094l68.15-23.483a44.934,44.934,0,0,0,5.668,13.546c10.289,16.205,27.833,19.607,40.74,19.607,14.63,0,26.075-4.125,34.018-12.259a39.482,39.482,0,0,0,10.37-20.772l67.8,23.361a4.811,4.811,0,0,0,5.893-6.654Zm-171.636-148.2a51.249,51.249,0,0,1,4.4-25.709,4.81,4.81,0,1,0-8.748-4,60.162,60.162,0,0,0-3.509,9.882,4.8,4.8,0,0,0-2.258-3.276l-10.466-6.28,10.6-7.492a4.809,4.809,0,0,0-.64-8.237l-8.864-4.394,13.144-4.737a4.81,4.81,0,0,0,1.147-8.452l-2.543-1.8,18.6.461a4.782,4.782,0,0,0,4.578-3.021,4.833,4.833,0,0,0-1.231-5.349L1279,364.052c6.756.043,13.254-.162,14.058-.188.078,0,.158-.008.239-.014,29.335-2.434,44.3,3.374,51.686,8.674,7.445,5.34,8.6,10.94,8.645,11.145a4.778,4.778,0,0,0,1.942,3.133,4.854,4.854,0,0,0,3.588.84c6.178-1.017,12,3.165,17.3,12.43a70.37,70.37,0,0,1,4.435,9.458l-.065-.008a4.81,4.81,0,0,0-5.362,4.289l-3.444,33.825-12.616-23.074a4.78,4.78,0,0,0-3.457-2.441l-20.32-3.264a4.81,4.81,0,0,0-5.074,6.878l1.322,2.68-6.045-2.909a4.809,4.809,0,0,0-6.676,2.9l-1.166,3.729-1.34-3.87a4.811,4.811,0,0,0-6.738-2.707l-6.121,3.134,1.315-3.311a4.81,4.81,0,0,0-5.574-6.456L1279.27,423.7a4.817,4.817,0,0,0-3.35,2.864l-7.692,18.851Zm8.014,62.252c-.005-.069-.012-.137-.02-.194l-4.651-36.1,13.169-32.275,8.871-2.091-2.629,6.62a4.81,4.81,0,0,0,6.662,6.056l12.577-6.437,4.309,12.444a4.81,4.81,0,0,0,9.136-.139l3.862-12.359,13.6,6.543a4.809,4.809,0,0,0,6.4-6.461l-3.372-6.838,8.794,1.413,18.2,33.293-3.72,36.521a22.285,22.285,0,0,1-11.322,17.493l-26.011,14.558a17.018,17.018,0,0,1-16.521,0l-26.011-14.558A22.294,22.294,0,0,1,1275.391,501.064Zm72.68,83.291c-6.063,6.211-15.193,9.36-27.135,9.36-28.462,0-35.533-18-37.282-26.677l4.776-1.645a4.818,4.818,0,0,0,3.223-4.129l2.411-27.574,13.963,7.816a26.7,26.7,0,0,0,25.919,0l11.6-6.5,2.3,26.254a4.814,4.814,0,0,0,3.224,4.129l5.02,1.729A30.493,30.493,0,0,1,1348.072,584.355Z" transform="translate(2.73 3.164)" fill="#474747"/>
    <path id="Path_66" data-name="Path 66" d="M1303.944,502.628a14.772,14.772,0,0,0,27.209,0,4.81,4.81,0,0,0-8.859-3.748,5.152,5.152,0,0,1-9.491,0,4.809,4.809,0,1,0-8.859,3.748Z" transform="translate(5.892 7.508)" fill="#474747"/>
    <path id="Path_67" data-name="Path 67" d="M1329.128,475.215a4.775,4.775,0,0,0,3.391-1.4c2.2-2.187,5.324-3.1,9.3-2.723a22.338,22.338,0,0,1,6.119,1.5,4.81,4.81,0,0,0,3.913-8.787,31.909,31.909,0,0,0-8.855-2.26c-6.974-.727-12.942,1.158-17.26,5.453a4.81,4.81,0,0,0,3.392,8.219Z" transform="translate(6.526 6.453)" fill="#474747"/>
    <path id="Path_68" data-name="Path 68" d="M1300.305,474.056a4.81,4.81,0,0,0,6.24-7.321c-10.625-9.056-24.26-3.171-24.835-2.915a4.81,4.81,0,0,0,3.875,8.8C1285.939,472.471,1294.29,468.929,1300.305,474.056Z" transform="translate(5.137 6.463)" fill="#474747"/>
  </g>
</svg>
